# xmcd
#
# Track frame offsets:
#	150
#	30342
#	64546
#	72526
#	88374
#	108297
#	150446
#
# Disc length: 2026 seconds
#
# Revision: 1
# Processed by: cddbd v1.5.2PL0 Copyright (c) Steve Scherf et al.
# Submitted via: audiograbber 1.83.01
#
DISCID=5207e807
DTITLE=Grateful Dead - 68-03-29 Carousel Ballroom, San Francisco CA
DYEAR=1900
DGENRE=
TTITLE0=Morning Dew
TTITLE1=Turn On Your Lovelight
TTITLE2=Cryptical Envelopment
TTITLE3=The Other One
TTITLE4=Cryptical Envelopment
TTITLE5=New Potato Caboose
TTITLE6=Born Cross-Eyed
EXTD=
EXTT0=
EXTT1=
EXTT2=
EXTT3=
EXTT4=
EXTT5=
EXTT6=
PLAYORDER=
